<svg id="Layer_1" data-name="Layer 1" xmlns="http://www.w3.org/2000/svg" viewBox="0 0 313.57 280.79"><defs><style>.cls-1{fill:#282828;}.cls-2{fill:#f15a24;}.cls-3{fill:#fff;}.cls-4{font-size:31.62px;font-family:Waylimo;}.cls-5{letter-spacing:-0.01em;}.cls-6{letter-spacing:-0.01em;}.cls-7{letter-spacing:0em;}</style></defs><title>Artboard 4jb svg</title><path class="cls-1" d="M142.15,187.77c-1.93-.12,0-92.14,0-99.86,3.6.07,7.26.4,10.82-.21a15,15,0,0,0,9.31-5,9.31,9.31,0,0,1,2-2.21,6,6,0,0,1,2.74-.75c4.82-.44,9.67.2,14.51,0a22.11,22.11,0,0,0,10.62-2.78c2.92-1.81,4.11-5.87,7.35-7.09a12.49,12.49,0,0,1,4.44-.53l19.67,0a18,18,0,0,1,6.3.75A14.17,14.17,0,0,1,235,73.7c13.8,14.34,10.39,39.87-7.86,48.68,2.22-1.08,9.59,4.81,11.18,6.15a33.62,33.62,0,0,1,8.17,10,33.26,33.26,0,0,1,2.15,25.87,33.75,33.75,0,0,1-25,21.68,78.68,78.68,0,0,1-14.73,1.74c-21.38.2-42.77.12-64.15.13C144,187.93,143.32,187.84,142.15,187.77Zm35.66-50.09c0,7.8,0,15.41,0,23,0,1.85,1.27,1.71,2.47,1.71,6.61,0,13.22.08,19.83,0a23.7,23.7,0,0,0,6.23-.85c5.59-1.63,8.61-6.5,8.21-12.76-.36-5.51-4.44-10.68-9.85-11C195.92,137.35,187.11,137.68,177.81,137.68Zm11.39-24.79v-.1c3.12,0,6.25.14,9.36,0a10.82,10.82,0,0,0,10.55-10.33c.58-6.92-4-12.32-11.11-12.67-6-.3-12.11-.06-18.16-.18-1.9,0-2,1-2,2.42,0,6.14.06,12.29,0,18.43,0,2,.78,2.55,2.61,2.49C183.33,112.82,186.27,112.89,189.2,112.89Z"/><path class="cls-2" d="M72.52,169.2c.25,3.28.1,6.29.8,9.08.78,3.13,1.76,6.5,3.66,9,5.53,7.32,16.82,6.12,21.23-2,2.17-4,2.72-8.33,2.72-12.79q0-42,0-84.09c-.06-.42,28.29-.49,30.58-.13a2.58,2.58,0,0,1,1.57.65,2.64,2.64,0,0,1,.45,1.82c0,27.32,0,54.65-.35,82a59.42,59.42,0,0,1-5.18,23.8c-4.65,10.32-12.4,17.18-23.31,20.24-18.89,5.29-43.22,3.16-54.75-14.75-4.54-7.06-6.51-15.5-7.14-23.87a3,3,0,0,1,.49-2.32,2.94,2.94,0,0,1,1.58-.68Q58.69,172.16,72.52,169.2Z"/><path class="cls-1" d="M164,73.86V50.46c1-.07,1.9-.18,2.78-.18,5.05,0,10.1-.09,15.15,0a12.34,12.34,0,0,1,5.08.93c4.05,2,7.07,4.51,6.71,10-.57,8.68-4,12.49-12.88,12.58C175.28,73.9,169.71,73.86,164,73.86Z"/><path d="M89.14,86.42c-.8,3.84-1.53,7.41-2.3,11a3.31,3.31,0,0,1-3.78,2.82c-1.18,0-2.36,0-4,0,1.1-4.46,2.07-8.6,3.19-12.71.13-.47,1-1,1.63-1C85.55,86.34,87.28,86.42,89.14,86.42Z"/><path class="cls-1" d="M231.06,59.11c.58.78,7.22-.18,8.69.44,4.41,1.84,2.38,5.27-1.76,5C234.94,64.4,232.74,61.38,231.06,59.11Z"/><path class="cls-1" d="M206.27,59.58c1.83-1.09,5-.74,7.06-.12a9.18,9.18,0,0,1,5.32,4.33c-1.81.49-5,.93-6.86.34C209.44,63.38,207.73,61.43,206.27,59.58Z"/><path class="cls-1" d="M218.78,59.43s6.39-.29,7.37.1a8.88,8.88,0,0,1,4.66,4.28c.28.65-6.25.24-6.82,0C221.57,63,220.19,61.48,218.78,59.43Z"/><path class="cls-1" d="M205.72,64a67.93,67.93,0,0,1-8.2.09V59.68C197.53,56.26,206.79,63.84,205.72,64Z"/><path class="cls-1" d="M152.87,42.89a22.54,22.54,0,0,0-4.11-.27q-23,0-46,0v-.06H55.14c-2.09,0-4.14.05-4.62,2.78-.56,3.09.13,4.51,2.83,5.65,3.38,1.43,4.52,3.36,3.83,7.23-1.4,7.85-3,15.68-4.43,23.52-2.9,15.32-5.94,30.61-8.63,46C42.84,135,47.34,140,54.75,140.11c7.8.07,15.6,0,23.4,0,4.82,0,5.48-.74,5.56-5.66,0-.91,0-1.83,0-2.75,0-3.19-.73-4-3.93-4.4-.73-.09-1.46-.14-2.19-.24-5.51-.82-7.54-3.63-6.37-9q3.14-14.38,6.37-28.74c1.46-6.48,2.56-7.38,9.1-7.4q30-.09,60-.16a41.58,41.58,0,0,0,6.31-.35,6.27,6.27,0,0,0,5.69-6.6q0-12.39,0-24.78A6.84,6.84,0,0,0,152.87,42.89Zm-82.2,8.82q7.52-.24,15,0c.74,0,1.44,1.18,2.16,1.81-.72.54-1.41,1.48-2.17,1.54-2.54.19-5.1.07-7.65.07h0c-2.47,0-5,.14-7.39-.08-.82-.08-1.55-1.09-2.32-1.67C69.12,52.79,69.88,51.73,70.67,51.71Zm.1,6.53q7.4-.24,14.79,0c.77,0,1.51,1.09,2.27,1.67-.8.54-1.55,1.48-2.39,1.55-2.44.21-4.92.08-7.39.08v-.06c-2.37,0-4.76.15-7.12-.07-.87-.08-1.66-1-2.49-1.53C69.22,59.3,70,58.26,70.77,58.24Zm14.79,9.52c-4.94.17-9.88.17-14.82,0-.57,0-1.12-.55-1.68-1a5.44,5.44,0,0,0-.55-.45c.18-.16.37-.34.55-.53.55-.57,1.09-1.2,1.69-1.25,2.54-.23,5.11-.09,7.68-.09v-.07c2.37,0,4.77-.15,7.13.07.82.08,1.55,1.08,2.32,1.65C87.11,66.69,86.35,67.74,85.56,67.76Zm41.27,0c0,.94-1.31,1.82-2,2.73-.66-.92-1.75-1.78-1.88-2.77a49.89,49.89,0,0,1-.09-6.59h-.06a48.11,48.11,0,0,1,.09-6.58c.14-1,1.3-1.82,2-2.72.69.92,2,1.8,2,2.74C127.07,58.93,127.06,63.34,126.83,67.73Zm8.64.1c0,.92-1.33,1.78-2,2.67-.69-.9-1.83-1.73-2-2.71a47.94,47.94,0,0,1-.09-6.57h0a57.75,57.75,0,0,1,.08-6.84c.12-.92,1.22-1.73,1.87-2.59.74.87,2.07,1.71,2.11,2.62A133.49,133.49,0,0,1,135.47,67.83Zm8.51-.12c-.14,1-1.22,1.86-1.87,2.79-.71-.88-2-1.74-2-2.65a129,129,0,0,1,0-13.19c0-1,1.35-1.95,2.08-2.92.65.93,1.74,1.8,1.86,2.79a56,56,0,0,1,.09,6.86h0A45.89,45.89,0,0,1,144,67.71Z"/><path class="cls-3" d="M281.47,207.92c-1.35,1.27-2.06,2.51-3,2.7-1.77.35-2.15-1.24-1.87-2.53a9.83,9.83,0,0,1,1.63-2.71Z"/><path class="cls-3" d="M233.78,207h-3.84l-.42-.71c.73-.54,1.46-1.51,2.17-1.49s1.65.9,2.47,1.41Z"/><text class="cls-4" transform="translate(139.9 219.33)"><tspan class="cls-5">E</tspan><tspan x="13.09" y="0">ng</tspan><tspan class="cls-6" x="44.58" y="0">i</tspan><tspan class="cls-7" x="50.9" y="0">neer</tspan><tspan class="cls-6" x="108.73" y="0">i</tspan><tspan class="cls-7" x="115.05" y="0">ng</tspan></text></svg>